# xmcd CD database file
#
# Track frame offsets:
#	150
#	15450
#	32737
#	47355
#	58495
#	73697
#	91240
#	114729
#	125904
#	141417
#	159630
#	174667
#	188165
#	201587
#	212052
#	223947
#	240957
#	262307
#
# Disc length: 3744 seconds
#
# Revision: 0
# Processed by: cddbd v1.4PL0 Copyright (c) Steve Scherf et al.
# Submitted via: Feurio! 1.65.5ß - http://www.feurio.com
#
DISCID=1f0e9e12
DTITLE=Major Dundee with Dick Van Altena - The Marlstone Stories 1980-1990
DYEAR=1900
DGENRE=
TTITLE0=Sweet Little Liza
TTITLE1=It Turned Out To Be You
TTITLE2=Continental Cowboy
TTITLE3=I LOve My Rancho Grande
TTITLE4=She Loves Me Easy
TTITLE5=Powderfinger
TTITLE6=Me and Jack
TTITLE7=Sometimes love
TTITLE8=The Tide Is High
TTITLE9=Loretta
TTITLE10=Singing The Blues
TTITLE11=Daisy Mornings
TTITLE12=Good Old Country Song
TTITLE13=Lisa
TTITLE14=Adieu Cherie
TTITLE15=Come On Rosie
TTITLE16=Before You Go
TTITLE17=It Turned Out To Be You
EXTD=
EXTT0=
EXTT1=
EXTT2=
EXTT3=
EXTT4=
EXTT5=
EXTT6=
EXTT7=
EXTT8=
EXTT9=
EXTT10=
EXTT11=
EXTT12=
EXTT13=
EXTT14=
EXTT15=
EXTT16=
EXTT17=
PLAYORDER=
